<svg width="20" height="20" viewBox="0 0 20 20" fill="none" xmlns="http://www.w3.org/2000/svg">
<path d="M15.5169 9.99999V6.46666M15.5169 9.99999V13.5333M15.5169 9.99999H16.7004M15.5169 6.46666V6.46666C15.5169 4.84662 14.2036 3.53333 12.5836 3.53333H10.4002H7.06689C5.1339 3.53333 3.56689 5.10033 3.56689 7.03333V12.9667C3.56689 14.8997 5.1339 16.4667 7.0669 16.4667H10.4002H12.5836C14.2036 16.4667 15.5169 15.1534 15.5169 13.5333V13.5333M15.5169 6.46666H16.7004M15.5169 13.5333H16.7004" stroke="#3A3A3A" stroke-width="1.25" stroke-linecap="round"/>
<circle cx="9.65837" cy="8.20842" r="1.66667" stroke="#3A3A3A" stroke-width="1.25"/>
<path d="M7.11719 13.1997L7.23397 12.9545C7.67169 12.0352 8.59906 11.4497 9.61719 11.4497V11.4497C10.6353 11.4497 11.5627 12.0352 12.0004 12.9545L12.1172 13.1997" stroke="#3A3A3A" stroke-width="1.25" stroke-linecap="round"/>
</svg>
